<mxfile host="app.diagrams.net" agent="Mozilla/5.0 (Windows NT 10.0; Win64; x64) AppleWebKit/537.36 (KHTML, like Gecko) Chrome/127.0.0.0 Safari/537.36" version="24.7.6">
  <diagram id="C5RBs43oDa-KdzZeNtuy" name="Page-1">
    <mxGraphModel dx="858" dy="393" grid="1" gridSize="10" guides="1" tooltips="1" connect="1" arrows="1" fold="1" page="1" pageScale="1" pageWidth="827" pageHeight="1169" math="0" shadow="0">
      <root>
        <mxCell id="WIyWlLk6GJQsqaUBKTNV-0" />
        <mxCell id="WIyWlLk6GJQsqaUBKTNV-1" parent="WIyWlLk6GJQsqaUBKTNV-0" />
        <mxCell id="lOClj2oo7x6Ww53FL5YU-5" value="" style="group" vertex="1" connectable="0" parent="WIyWlLk6GJQsqaUBKTNV-1">
          <mxGeometry x="432" y="90" width="60" height="45" as="geometry" />
        </mxCell>
        <mxCell id="lOClj2oo7x6Ww53FL5YU-2" value="31" style="rounded=0;whiteSpace=wrap;html=1;align=left;" vertex="1" parent="lOClj2oo7x6Ww53FL5YU-5">
          <mxGeometry width="48" height="20" as="geometry" />
        </mxCell>
        <mxCell id="lOClj2oo7x6Ww53FL5YU-6" value="" style="group" vertex="1" connectable="0" parent="lOClj2oo7x6Ww53FL5YU-5">
          <mxGeometry y="-5" width="60" height="50" as="geometry" />
        </mxCell>
        <mxCell id="lOClj2oo7x6Ww53FL5YU-3" value="" style="rounded=0;whiteSpace=wrap;html=1;" vertex="1" parent="lOClj2oo7x6Ww53FL5YU-6">
          <mxGeometry y="25" width="48" height="20" as="geometry" />
        </mxCell>
        <mxCell id="lOClj2oo7x6Ww53FL5YU-4" value="30" style="text;html=1;align=center;verticalAlign=middle;resizable=0;points=[];autosize=1;strokeColor=none;fillColor=none;" vertex="1" parent="lOClj2oo7x6Ww53FL5YU-6">
          <mxGeometry x="12" width="40" height="30" as="geometry" />
        </mxCell>
        <mxCell id="lOClj2oo7x6Ww53FL5YU-49" value="index 3" style="text;html=1;align=center;verticalAlign=middle;resizable=0;points=[];autosize=1;strokeColor=none;fillColor=none;" vertex="1" parent="lOClj2oo7x6Ww53FL5YU-6">
          <mxGeometry x="-6" y="20" width="60" height="30" as="geometry" />
        </mxCell>
        <mxCell id="lOClj2oo7x6Ww53FL5YU-7" value="" style="group" vertex="1" connectable="0" parent="WIyWlLk6GJQsqaUBKTNV-1">
          <mxGeometry x="480" y="90" width="220" height="45" as="geometry" />
        </mxCell>
        <mxCell id="lOClj2oo7x6Ww53FL5YU-8" value="29" style="rounded=0;whiteSpace=wrap;html=1;align=left;" vertex="1" parent="lOClj2oo7x6Ww53FL5YU-7">
          <mxGeometry width="176" height="20" as="geometry" />
        </mxCell>
        <mxCell id="lOClj2oo7x6Ww53FL5YU-9" value="" style="group" vertex="1" connectable="0" parent="lOClj2oo7x6Ww53FL5YU-7">
          <mxGeometry y="-5" width="220" height="50" as="geometry" />
        </mxCell>
        <mxCell id="lOClj2oo7x6Ww53FL5YU-10" value="" style="rounded=0;whiteSpace=wrap;html=1;" vertex="1" parent="lOClj2oo7x6Ww53FL5YU-9">
          <mxGeometry y="25" width="176" height="20" as="geometry" />
        </mxCell>
        <mxCell id="lOClj2oo7x6Ww53FL5YU-11" value="21" style="text;html=1;align=center;verticalAlign=middle;resizable=0;points=[];autosize=1;strokeColor=none;fillColor=none;" vertex="1" parent="lOClj2oo7x6Ww53FL5YU-9">
          <mxGeometry x="138.9473684210526" width="40" height="30" as="geometry" />
        </mxCell>
        <mxCell id="lOClj2oo7x6Ww53FL5YU-48" value="index 2" style="text;html=1;align=center;verticalAlign=middle;resizable=0;points=[];autosize=1;strokeColor=none;fillColor=none;" vertex="1" parent="lOClj2oo7x6Ww53FL5YU-9">
          <mxGeometry x="50" y="20" width="60" height="30" as="geometry" />
        </mxCell>
        <mxCell id="lOClj2oo7x6Ww53FL5YU-23" value="" style="group" vertex="1" connectable="0" parent="WIyWlLk6GJQsqaUBKTNV-1">
          <mxGeometry x="610" y="210" width="90" height="105" as="geometry" />
        </mxCell>
        <mxCell id="lOClj2oo7x6Ww53FL5YU-24" value="" style="rounded=1;whiteSpace=wrap;html=1;fontSize=12;glass=0;strokeWidth=1;shadow=0;arcSize=0;" vertex="1" parent="lOClj2oo7x6Ww53FL5YU-23">
          <mxGeometry width="90" height="105" as="geometry" />
        </mxCell>
        <mxCell id="lOClj2oo7x6Ww53FL5YU-25" value="Entry #0" style="text;html=1;align=center;verticalAlign=middle;resizable=0;points=[];autosize=1;strokeColor=none;fillColor=none;" vertex="1" parent="lOClj2oo7x6Ww53FL5YU-23">
          <mxGeometry x="10" y="75" width="70" height="30" as="geometry" />
        </mxCell>
        <mxCell id="lOClj2oo7x6Ww53FL5YU-26" value="" style="endArrow=none;html=1;rounded=0;exitX=0;exitY=0.25;exitDx=0;exitDy=0;entryX=1;entryY=0.25;entryDx=0;entryDy=0;" edge="1" parent="lOClj2oo7x6Ww53FL5YU-23" source="lOClj2oo7x6Ww53FL5YU-24" target="lOClj2oo7x6Ww53FL5YU-24">
          <mxGeometry width="50" height="50" relative="1" as="geometry">
            <mxPoint x="10" y="72.5" as="sourcePoint" />
            <mxPoint x="60" y="22.5" as="targetPoint" />
          </mxGeometry>
        </mxCell>
        <mxCell id="lOClj2oo7x6Ww53FL5YU-27" value="" style="endArrow=none;html=1;rounded=0;exitX=0;exitY=0.5;exitDx=0;exitDy=0;entryX=1;entryY=0.5;entryDx=0;entryDy=0;" edge="1" parent="lOClj2oo7x6Ww53FL5YU-23" source="lOClj2oo7x6Ww53FL5YU-24" target="lOClj2oo7x6Ww53FL5YU-24">
          <mxGeometry width="50" height="50" relative="1" as="geometry">
            <mxPoint y="79.41" as="sourcePoint" />
            <mxPoint x="120" y="79.41" as="targetPoint" />
          </mxGeometry>
        </mxCell>
        <mxCell id="lOClj2oo7x6Ww53FL5YU-28" value="" style="endArrow=none;html=1;rounded=0;exitX=0;exitY=0.75;exitDx=0;exitDy=0;entryX=1;entryY=0.75;entryDx=0;entryDy=0;" edge="1" parent="lOClj2oo7x6Ww53FL5YU-23" source="lOClj2oo7x6Ww53FL5YU-24" target="lOClj2oo7x6Ww53FL5YU-24">
          <mxGeometry width="50" height="50" relative="1" as="geometry">
            <mxPoint x="10" y="82.5" as="sourcePoint" />
            <mxPoint x="100" y="82.5" as="targetPoint" />
          </mxGeometry>
        </mxCell>
        <mxCell id="lOClj2oo7x6Ww53FL5YU-60" value="Entry #2^11" style="text;html=1;align=center;verticalAlign=middle;resizable=0;points=[];autosize=1;strokeColor=none;fillColor=none;" vertex="1" parent="lOClj2oo7x6Ww53FL5YU-23">
          <mxGeometry width="90" height="30" as="geometry" />
        </mxCell>
        <mxCell id="lOClj2oo7x6Ww53FL5YU-30" value="" style="group" vertex="1" connectable="0" parent="WIyWlLk6GJQsqaUBKTNV-1">
          <mxGeometry x="800" y="260" width="90" height="105" as="geometry" />
        </mxCell>
        <mxCell id="lOClj2oo7x6Ww53FL5YU-31" value="" style="rounded=1;whiteSpace=wrap;html=1;fontSize=12;glass=0;strokeWidth=1;shadow=0;arcSize=0;" vertex="1" parent="lOClj2oo7x6Ww53FL5YU-30">
          <mxGeometry width="90" height="105" as="geometry" />
        </mxCell>
        <mxCell id="lOClj2oo7x6Ww53FL5YU-32" value="Entry #0" style="text;html=1;align=center;verticalAlign=middle;resizable=0;points=[];autosize=1;strokeColor=none;fillColor=none;" vertex="1" parent="lOClj2oo7x6Ww53FL5YU-30">
          <mxGeometry x="10" y="75" width="70" height="30" as="geometry" />
        </mxCell>
        <mxCell id="lOClj2oo7x6Ww53FL5YU-33" value="" style="endArrow=none;html=1;rounded=0;exitX=0;exitY=0.25;exitDx=0;exitDy=0;entryX=1;entryY=0.25;entryDx=0;entryDy=0;" edge="1" parent="lOClj2oo7x6Ww53FL5YU-30" source="lOClj2oo7x6Ww53FL5YU-31" target="lOClj2oo7x6Ww53FL5YU-31">
          <mxGeometry width="50" height="50" relative="1" as="geometry">
            <mxPoint x="10" y="72.5" as="sourcePoint" />
            <mxPoint x="60" y="22.5" as="targetPoint" />
          </mxGeometry>
        </mxCell>
        <mxCell id="lOClj2oo7x6Ww53FL5YU-34" value="" style="endArrow=none;html=1;rounded=0;exitX=0;exitY=0.5;exitDx=0;exitDy=0;entryX=1;entryY=0.5;entryDx=0;entryDy=0;" edge="1" parent="lOClj2oo7x6Ww53FL5YU-30" source="lOClj2oo7x6Ww53FL5YU-31" target="lOClj2oo7x6Ww53FL5YU-31">
          <mxGeometry width="50" height="50" relative="1" as="geometry">
            <mxPoint y="79.41" as="sourcePoint" />
            <mxPoint x="120" y="79.41" as="targetPoint" />
          </mxGeometry>
        </mxCell>
        <mxCell id="lOClj2oo7x6Ww53FL5YU-35" value="" style="endArrow=none;html=1;rounded=0;exitX=0;exitY=0.75;exitDx=0;exitDy=0;entryX=1;entryY=0.75;entryDx=0;entryDy=0;" edge="1" parent="lOClj2oo7x6Ww53FL5YU-30" source="lOClj2oo7x6Ww53FL5YU-31" target="lOClj2oo7x6Ww53FL5YU-31">
          <mxGeometry width="50" height="50" relative="1" as="geometry">
            <mxPoint x="10" y="82.5" as="sourcePoint" />
            <mxPoint x="100" y="82.5" as="targetPoint" />
          </mxGeometry>
        </mxCell>
        <mxCell id="lOClj2oo7x6Ww53FL5YU-61" value="Entry #2^20" style="text;html=1;align=center;verticalAlign=middle;resizable=0;points=[];autosize=1;strokeColor=none;fillColor=none;" vertex="1" parent="lOClj2oo7x6Ww53FL5YU-30">
          <mxGeometry width="90" height="30" as="geometry" />
        </mxCell>
        <mxCell id="lOClj2oo7x6Ww53FL5YU-36" value="" style="group" vertex="1" connectable="0" parent="WIyWlLk6GJQsqaUBKTNV-1">
          <mxGeometry x="656" y="90" width="220" height="45" as="geometry" />
        </mxCell>
        <mxCell id="lOClj2oo7x6Ww53FL5YU-37" value="20" style="rounded=0;whiteSpace=wrap;html=1;align=left;" vertex="1" parent="lOClj2oo7x6Ww53FL5YU-36">
          <mxGeometry width="176" height="20" as="geometry" />
        </mxCell>
        <mxCell id="lOClj2oo7x6Ww53FL5YU-38" value="" style="group" vertex="1" connectable="0" parent="lOClj2oo7x6Ww53FL5YU-36">
          <mxGeometry y="-5" width="220" height="50" as="geometry" />
        </mxCell>
        <mxCell id="lOClj2oo7x6Ww53FL5YU-39" value="" style="rounded=0;whiteSpace=wrap;html=1;" vertex="1" parent="lOClj2oo7x6Ww53FL5YU-38">
          <mxGeometry y="25" width="176" height="20" as="geometry" />
        </mxCell>
        <mxCell id="lOClj2oo7x6Ww53FL5YU-40" value="12" style="text;html=1;align=center;verticalAlign=middle;resizable=0;points=[];autosize=1;strokeColor=none;fillColor=none;" vertex="1" parent="lOClj2oo7x6Ww53FL5YU-38">
          <mxGeometry x="138.9473684210526" width="40" height="30" as="geometry" />
        </mxCell>
        <mxCell id="lOClj2oo7x6Ww53FL5YU-47" value="index 1" style="text;html=1;align=center;verticalAlign=middle;resizable=0;points=[];autosize=1;strokeColor=none;fillColor=none;" vertex="1" parent="lOClj2oo7x6Ww53FL5YU-38">
          <mxGeometry x="54" y="20" width="60" height="30" as="geometry" />
        </mxCell>
        <mxCell id="lOClj2oo7x6Ww53FL5YU-41" value="" style="group" vertex="1" connectable="0" parent="WIyWlLk6GJQsqaUBKTNV-1">
          <mxGeometry x="827" y="90" width="293" height="45" as="geometry" />
        </mxCell>
        <mxCell id="lOClj2oo7x6Ww53FL5YU-42" value="11" style="rounded=0;whiteSpace=wrap;html=1;align=left;" vertex="1" parent="lOClj2oo7x6Ww53FL5YU-41">
          <mxGeometry width="234.4" height="20" as="geometry" />
        </mxCell>
        <mxCell id="lOClj2oo7x6Ww53FL5YU-43" value="" style="group" vertex="1" connectable="0" parent="lOClj2oo7x6Ww53FL5YU-41">
          <mxGeometry y="-5" width="292.99999999999994" height="50" as="geometry" />
        </mxCell>
        <mxCell id="lOClj2oo7x6Ww53FL5YU-44" value="" style="rounded=0;whiteSpace=wrap;html=1;" vertex="1" parent="lOClj2oo7x6Ww53FL5YU-43">
          <mxGeometry y="25" width="234.4" height="20" as="geometry" />
        </mxCell>
        <mxCell id="lOClj2oo7x6Ww53FL5YU-45" value="0" style="text;html=1;align=center;verticalAlign=middle;resizable=0;points=[];autosize=1;strokeColor=none;fillColor=none;" vertex="1" parent="lOClj2oo7x6Ww53FL5YU-43">
          <mxGeometry x="191.71172248803825" width="30" height="30" as="geometry" />
        </mxCell>
        <mxCell id="lOClj2oo7x6Ww53FL5YU-46" value="offset" style="text;html=1;align=center;verticalAlign=middle;resizable=0;points=[];autosize=1;strokeColor=none;fillColor=none;" vertex="1" parent="lOClj2oo7x6Ww53FL5YU-43">
          <mxGeometry x="83.90454545454544" y="20" width="50" height="30" as="geometry" />
        </mxCell>
        <mxCell id="lOClj2oo7x6Ww53FL5YU-59" value="" style="group" vertex="1" connectable="0" parent="WIyWlLk6GJQsqaUBKTNV-1">
          <mxGeometry x="420" y="160" width="90" height="180" as="geometry" />
        </mxCell>
        <mxCell id="lOClj2oo7x6Ww53FL5YU-22" value="" style="group" vertex="1" connectable="0" parent="lOClj2oo7x6Ww53FL5YU-59">
          <mxGeometry width="90" height="180" as="geometry" />
        </mxCell>
        <mxCell id="WIyWlLk6GJQsqaUBKTNV-7" value="" style="rounded=1;whiteSpace=wrap;html=1;fontSize=12;glass=0;strokeWidth=1;shadow=0;arcSize=0;" parent="lOClj2oo7x6Ww53FL5YU-22" vertex="1">
          <mxGeometry width="90" height="180" as="geometry" />
        </mxCell>
        <mxCell id="lOClj2oo7x6Ww53FL5YU-21" value="Entry #0" style="text;html=1;align=center;verticalAlign=middle;resizable=0;points=[];autosize=1;strokeColor=none;fillColor=none;" vertex="1" parent="lOClj2oo7x6Ww53FL5YU-22">
          <mxGeometry x="9" y="154.00142857142856" width="70" height="30" as="geometry" />
        </mxCell>
        <mxCell id="lOClj2oo7x6Ww53FL5YU-16" value="" style="endArrow=none;html=1;rounded=0;exitX=0;exitY=0.25;exitDx=0;exitDy=0;entryX=1;entryY=0.25;entryDx=0;entryDy=0;" edge="1" parent="lOClj2oo7x6Ww53FL5YU-22">
          <mxGeometry width="50" height="50" relative="1" as="geometry">
            <mxPoint y="70" as="sourcePoint" />
            <mxPoint x="90" y="70" as="targetPoint" />
          </mxGeometry>
        </mxCell>
        <mxCell id="lOClj2oo7x6Ww53FL5YU-20" value="" style="endArrow=none;html=1;rounded=0;exitX=0;exitY=0.75;exitDx=0;exitDy=0;entryX=1;entryY=0.75;entryDx=0;entryDy=0;" edge="1" parent="lOClj2oo7x6Ww53FL5YU-22">
          <mxGeometry width="50" height="50" relative="1" as="geometry">
            <mxPoint y="160" as="sourcePoint" />
            <mxPoint x="90" y="160" as="targetPoint" />
          </mxGeometry>
        </mxCell>
        <mxCell id="lOClj2oo7x6Ww53FL5YU-52" value="" style="endArrow=none;html=1;rounded=0;exitX=0;exitY=0.5;exitDx=0;exitDy=0;entryX=1;entryY=0.5;entryDx=0;entryDy=0;" edge="1" parent="lOClj2oo7x6Ww53FL5YU-22" source="WIyWlLk6GJQsqaUBKTNV-7" target="WIyWlLk6GJQsqaUBKTNV-7">
          <mxGeometry width="50" height="50" relative="1" as="geometry">
            <mxPoint x="420" y="365.1428571428571" as="sourcePoint" />
            <mxPoint x="510" y="365.1428571428571" as="targetPoint" />
          </mxGeometry>
        </mxCell>
        <mxCell id="lOClj2oo7x6Ww53FL5YU-29" value="Entry #1" style="text;html=1;align=center;verticalAlign=middle;resizable=0;points=[];autosize=1;strokeColor=none;fillColor=none;" vertex="1" parent="lOClj2oo7x6Ww53FL5YU-22">
          <mxGeometry x="10" y="130.00428571428571" width="70" height="30" as="geometry" />
        </mxCell>
        <mxCell id="lOClj2oo7x6Ww53FL5YU-54" value="Entry #3" style="text;html=1;align=center;verticalAlign=middle;resizable=0;points=[];autosize=1;strokeColor=none;fillColor=none;" vertex="1" parent="lOClj2oo7x6Ww53FL5YU-22">
          <mxGeometry x="10" y="88.00428571428574" width="70" height="30" as="geometry" />
        </mxCell>
        <mxCell id="lOClj2oo7x6Ww53FL5YU-57" value="" style="endArrow=none;html=1;rounded=0;exitX=0;exitY=0.25;exitDx=0;exitDy=0;entryX=1;entryY=0.25;entryDx=0;entryDy=0;" edge="1" parent="lOClj2oo7x6Ww53FL5YU-22">
          <mxGeometry width="50" height="50" relative="1" as="geometry">
            <mxPoint x="-1" y="50" as="sourcePoint" />
            <mxPoint x="89" y="50" as="targetPoint" />
          </mxGeometry>
        </mxCell>
        <mxCell id="lOClj2oo7x6Ww53FL5YU-58" value="" style="endArrow=none;html=1;rounded=0;exitX=0;exitY=0.25;exitDx=0;exitDy=0;entryX=1;entryY=0.25;entryDx=0;entryDy=0;" edge="1" parent="lOClj2oo7x6Ww53FL5YU-22">
          <mxGeometry width="50" height="50" relative="1" as="geometry">
            <mxPoint x="-1" y="30" as="sourcePoint" />
            <mxPoint x="89" y="30" as="targetPoint" />
          </mxGeometry>
        </mxCell>
        <mxCell id="lOClj2oo7x6Ww53FL5YU-53" value="Entry #2" style="text;html=1;align=center;verticalAlign=middle;resizable=0;points=[];autosize=1;strokeColor=none;fillColor=none;" vertex="1" parent="lOClj2oo7x6Ww53FL5YU-59">
          <mxGeometry x="10" y="110.00428571428574" width="70" height="30" as="geometry" />
        </mxCell>
        <mxCell id="lOClj2oo7x6Ww53FL5YU-55" value="" style="endArrow=none;html=1;rounded=0;exitX=0;exitY=0.25;exitDx=0;exitDy=0;entryX=1;entryY=0.25;entryDx=0;entryDy=0;" edge="1" parent="lOClj2oo7x6Ww53FL5YU-59">
          <mxGeometry width="50" height="50" relative="1" as="geometry">
            <mxPoint y="114" as="sourcePoint" />
            <mxPoint x="90" y="114" as="targetPoint" />
          </mxGeometry>
        </mxCell>
        <mxCell id="lOClj2oo7x6Ww53FL5YU-56" value="" style="endArrow=none;html=1;rounded=0;exitX=0;exitY=0.25;exitDx=0;exitDy=0;entryX=1;entryY=0.25;entryDx=0;entryDy=0;" edge="1" parent="lOClj2oo7x6Ww53FL5YU-59">
          <mxGeometry width="50" height="50" relative="1" as="geometry">
            <mxPoint y="135" as="sourcePoint" />
            <mxPoint x="90" y="135" as="targetPoint" />
          </mxGeometry>
        </mxCell>
      </root>
    </mxGraphModel>
  </diagram>
</mxfile>
